<svg xmlns="http://www.w3.org/2000/svg" viewBox="0 0 64 64">
  <defs>
    <linearGradient id="bg" x1="0%" y1="0%" x2="100%" y2="100%">
      <stop offset="0%" stop-color="#6366f1"/>
      <stop offset="100%" stop-color="#3b82f6"/>
    </linearGradient>
  </defs>
  <!-- Rounded square background -->
  <rect width="64" height="64" rx="14" fill="url(#bg)"/>
  <!-- Game controller body -->
  <path d="M14 30c0-4 3-7 7-7h22c4 0 7 3 7 7v4c0 6-3 11-8 13l-2 1c-2 0-4-1-4-3h-8c0 2-2 3-4 3l-2-1c-5-2-8-7-8-13v-4z" fill="#fff" opacity="0.95"/>
  <!-- D-pad -->
  <rect x="19" y="28" width="4" height="12" rx="1" fill="#6366f1"/>
  <rect x="15" y="32" width="12" height="4" rx="1" fill="#6366f1"/>
  <!-- Action buttons -->
  <circle cx="42" cy="30" r="2.5" fill="#ef4444"/>
  <circle cx="48" cy="30" r="2.5" fill="#3b82f6"/>
  <circle cx="45" cy="26" r="2.5" fill="#22c55e"/>
  <circle cx="45" cy="34" r="2.5" fill="#f59e0b"/>
  <!-- Stars decoration -->
  <polygon points="10,14 11.5,11 13,14 10,12 13,12" fill="#fbbf24" opacity="0.9"/>
  <polygon points="51,11 52.2,8.5 53.4,11 51,9.5 53.4,9.5" fill="#fbbf24" opacity="0.7"/>
  <polygon points="54,18 55,16 56,18 54,17 56,17" fill="#fbbf24" opacity="0.5"/>
</svg>
