<svg xmlns="http://www.w3.org/2000/svg" viewBox="0 0 64 64">
  <defs>
    <linearGradient id="bg" x1="0%" y1="0%" x2="100%" y2="100%">
      <stop offset="0%" stop-color="#3a9a5c"/>
      <stop offset="100%" stop-color="#2d7a48"/>
    </linearGradient>
  </defs>
  <!-- Green rounded square -->
  <rect width="64" height="64" rx="14" fill="url(#bg)"/>
  <!-- Baseball -->
  <circle cx="32" cy="32" r="20" fill="#f5f0e1" stroke="#c4a265" stroke-width="2"/>
  <!-- Stitching left -->
  <path d="M22 16c-2 4-3 9-3 16s1 12 3 16" fill="none" stroke="#d63031" stroke-width="2.5" stroke-linecap="round"/>
  <!-- Stitching right -->
  <path d="M42 16c2 4 3 9 3 16s-1 12-3 16" fill="none" stroke="#d63031" stroke-width="2.5" stroke-linecap="round"/>
  <!-- Stitch marks left -->
  <line x1="19" y1="20" x2="22" y2="21" stroke="#d63031" stroke-width="1.5" stroke-linecap="round"/>
  <line x1="18" y1="25" x2="21" y2="25.5" stroke="#d63031" stroke-width="1.5" stroke-linecap="round"/>
  <line x1="18" y1="30" x2="21" y2="30" stroke="#d63031" stroke-width="1.5" stroke-linecap="round"/>
  <line x1="18" y1="35" x2="21" y2="34.5" stroke="#d63031" stroke-width="1.5" stroke-linecap="round"/>
  <line x1="19" y1="40" x2="22" y2="39" stroke="#d63031" stroke-width="1.5" stroke-linecap="round"/>
  <line x1="20" y1="44" x2="23" y2="43" stroke="#d63031" stroke-width="1.5" stroke-linecap="round"/>
  <!-- Stitch marks right -->
  <line x1="45" y1="20" x2="42" y2="21" stroke="#d63031" stroke-width="1.5" stroke-linecap="round"/>
  <line x1="46" y1="25" x2="43" y2="25.5" stroke="#d63031" stroke-width="1.5" stroke-linecap="round"/>
  <line x1="46" y1="30" x2="43" y2="30" stroke="#d63031" stroke-width="1.5" stroke-linecap="round"/>
  <line x1="46" y1="35" x2="43" y2="34.5" stroke="#d63031" stroke-width="1.5" stroke-linecap="round"/>
  <line x1="45" y1="40" x2="42" y2="39" stroke="#d63031" stroke-width="1.5" stroke-linecap="round"/>
  <line x1="44" y1="44" x2="41" y2="43" stroke="#d63031" stroke-width="1.5" stroke-linecap="round"/>
</svg>
